<?xml version="1.0" encoding="utf-8"?>
<!-- Generator: Adobe Illustrator 25.0.0, SVG Export Plug-In . SVG Version: 6.00 Build 0)  -->
<svg version="1.1" id="Layer_1" xmlns="http://www.w3.org/2000/svg" xmlns:xlink="http://www.w3.org/1999/xlink" x="0px" y="0px"
	 viewBox="0 0 318.5 438.9" style="enable-background:new 0 0 318.5 438.9;" xml:space="preserve">
<style type="text/css">
	.st0{fill:#0061F2;}
	.st1{opacity:0.8;}
	.st2{fill:#FFFFFF;}
	.st3{fill:#FFBE9D;}
	.st4{fill:#263238;}
	.st5{fill:#FAFAFA;}
	.st6{fill:#E0E0E0;}
	.st7{fill:#EBEBEB;}
	.st8{fill:#455A64;}
	.st9{opacity:0.4;}
	.st10{opacity:0.4;enable-background:new    ;}
	.st11{opacity:0.6;}
	.st12{opacity:0.6;fill:#FFFFFF;enable-background:new    ;}
	.st13{fill:#EB996E;}
	.st14{opacity:0.2;}
	.st15{fill:#F5F5F5;}
	.st16{opacity:0.3;}
</style>
<g id="freepik--Pencil--inject-66">
	<path class="st0" d="M226.9,256.2c2.1-16.1-9.2-29.4-23.4-37.4s-30.6-10.7-46.2-15.1c-14.8-4.2-29.4-10.3-40.3-21.1
		s-17.5-26.9-13.6-41.8c1-3.7,2.8-7.5,5.9-9.6s8.1-2.1,10.5,0.9c5.1,6.4-4.8,18,1.4,23.3c1.4,1.2,3.4,1.7,4.9,2.9
		c3.9,3.1,2.6,9.2,3.2,14.2c1.1,9.9,10.3,16.7,19.4,20.7c12.1,5.3,25.3,7.9,38.2,11c12.9,3.1,25.9,7.2,36.6,15s20.1,20,20,33.3
		c0,3.7-0.5,8.3-2.8,11.1s-5.3,3.5-8.6,1.9S226.3,261.6,226.9,256.2"/>
	<g class="st1">
		<path class="st2" d="M226.9,256.2c2.1-16.1-9.2-29.4-23.4-37.4s-30.6-10.7-46.2-15.1c-14.8-4.2-29.4-10.3-40.3-21.1
			s-17.5-26.9-13.6-41.8c1-3.7,2.8-7.5,5.9-9.6s8.1-2.1,10.5,0.9c5.1,6.4-4.8,18,1.4,23.3c1.4,1.2,3.4,1.7,4.9,2.9
			c3.9,3.1,2.6,9.2,3.2,14.2c1.1,9.9,10.3,16.7,19.4,20.7c12.1,5.3,25.3,7.9,38.2,11c12.9,3.1,25.9,7.2,36.6,15s20.1,20,20,33.3
			c0,3.7-0.5,8.3-2.8,11.1s-5.3,3.5-8.6,1.9S226.3,261.6,226.9,256.2"/>
	</g>
	<path class="st0" d="M158.4,128.1c-0.5-6,3.9-11.2,9-13.9s10.9-3.9,16.1-6.4c13-6.1,21.2-20.6,21.8-35.4s-5.8-29.6-15.9-40.5
		c-4.1-4.4-9.1-9.1-9.2-15.1c-0.1-6.3,6-11.3,12.1-11.2s11.7,4.2,15.4,9.3s5.7,11.2,7.6,17.2c-1.4-2.5,1.5-5.6,4.2-5.4
		s5,2.6,6.7,4.9c7.4,10,10.9,22.4,10,34.8c-1,12.2-6.5,23.6-15.5,31.9c-9.9,9-22.9,13.2-35.6,17.2l-26.4,8.3"/>
	<g class="st1">
		<path class="st2" d="M158.4,128.1c-0.5-6,3.9-11.2,9-13.9s10.9-3.9,16.1-6.4c13-6.1,21.2-20.6,21.8-35.4s-5.8-29.6-15.9-40.5
			c-4.1-4.4-9.1-9.1-9.2-15.1c-0.1-6.3,6-11.3,12.1-11.2s11.7,4.2,15.4,9.3s5.7,11.2,7.6,17.2c-1.4-2.5,1.5-5.6,4.2-5.4
			s5,2.6,6.7,4.9c7.4,10,10.9,22.4,10,34.8c-1,12.2-6.5,23.6-15.5,31.9c-9.9,9-22.9,13.2-35.6,17.2l-26.4,8.3"/>
	</g>
	<path class="st0" d="M151.1,2.7c-2.9,1.2-4.2,4.5-3.1,7.3c1.2,2.9,4.5,4.2,7.3,3.1s4.2-4.5,3.1-7.3c-1-2.5-3.8-3.9-6.4-3.3"/>
	<g class="st1">
		<path class="st2" d="M151.1,2.7c-2.9,1.2-4.2,4.5-3.1,7.3c1.2,2.9,4.5,4.2,7.3,3.1s4.2-4.5,3.1-7.3c-1-2.5-3.8-3.9-6.4-3.3"/>
	</g>
	<path class="st0" d="M183.7,388c-3.2-6.7-0.4-15.1,4.8-20.5s12.2-8.5,19-11.5c15.1-6.6,31-14.5,38.6-29.1c2.6-4.9,4-10.3,5.5-15.7
		c2.8-10.4,5.5-22.1-0.2-31.3c-1.6-2.6-4.1-5-7.1-5.5c-3.5-0.6-7,1.3-9.2,4.1c-2,2.9-3.2,6.3-3.5,9.8c-0.8,6.6-0.1,13.4-0.8,20
		s-3.1,13.7-8.6,17.5c-6.7,4.6-16.2,3.6-22.6,8.5c-5.2,4-7.2,10.8-11.3,16c-3.4,4.3-8.2,7.2-12.6,10.6s-8.7,7.4-10.2,12.7
		c-2.3,8,2.4,16.3,10.3,18.5c3.5,1,7.3,0.7,10.6-0.9"/>
	<g class="st1">
		<path class="st2" d="M183.7,388c-3.2-6.7-0.4-15.1,4.8-20.5s12.2-8.5,19-11.5c15.1-6.6,31-14.5,38.6-29.1c2.6-4.9,4-10.3,5.5-15.7
			c2.8-10.4,5.5-22.1-0.2-31.3c-1.6-2.6-4.1-5-7.1-5.5c-3.5-0.6-7,1.3-9.2,4.1c-2,2.9-3.2,6.3-3.5,9.8c-0.8,6.6-0.1,13.4-0.8,20
			s-3.1,13.7-8.6,17.5c-6.7,4.6-16.2,3.6-22.6,8.5c-5.2,4-7.2,10.8-11.3,16c-3.4,4.3-8.2,7.2-12.6,10.6s-8.7,7.4-10.2,12.7
			c-2.3,8,2.4,16.3,10.3,18.5c3.5,1,7.3,0.7,10.6-0.9"/>
	</g>
	<path class="st0" d="M83.5,49c-9.2-6.9-11.2-19.9-4.3-29.2c1.4-1.8,3-3.4,4.9-4.7c3.1-2.1,6.7-3.4,9.5-6c2.4-2.3,4-5.4,6.7-7.3
		c4.4-3.1,10.5-2.1,13.7,2.3c1.9,2.6,2.3,6,1.2,9c-1.2,3.5-4.4,6.1-5.7,9.6c-1.4,3.8-0.5,8-1,11.9C107.3,43.7,99,50,90,48.8
		c-1.2-0.2-2.4-0.5-3.6-0.9"/>
	<g class="st1">
		<path class="st2" d="M83.5,49c-9.2-6.9-11.2-19.9-4.3-29.2c1.4-1.8,3-3.4,4.9-4.7c3.1-2.1,6.7-3.4,9.5-6c2.4-2.3,4-5.4,6.7-7.3
			c4.4-3.1,10.5-2.1,13.7,2.3c1.9,2.6,2.3,6,1.2,9c-1.2,3.5-4.4,6.1-5.7,9.6c-1.4,3.8-0.5,8-1,11.9C107.3,43.7,99,50,90,48.8
			c-1.2-0.2-2.4-0.5-3.6-0.9"/>
	</g>
	<path class="st0" d="M83.9,27.6h12.3l0,0v25.3c0,3-2.4,5.4-5.4,5.4l0,0h-1.5c-3,0-5.4-2.4-5.4-5.4v0L83.9,27.6L83.9,27.6z"/>
	<polygon class="st3" points="83.9,27.6 90.1,16.3 96.2,27.6 	"/>
	<path class="st0" d="M87.6,20.8c0,0,1.9,2.8,4.9,0l-2.4-4.5L87.6,20.8z"/>
	<path class="st4" d="M96.4,51.7c-2.1,0.3-4.2,0.3-6.2,0.2c-2.1,0.1-4.2,0-6.2-0.2c2.1-0.3,4.2-0.3,6.2-0.2
		C92.2,51.3,94.3,51.4,96.4,51.7z"/>
	<path class="st4" d="M96.2,49.8c-2,0.3-4.1,0.3-6.1,0.2c-2,0.1-4.1,0-6.1-0.2c2-0.2,4.1-0.3,6.1-0.2C92.1,49.5,94.2,49.5,96.2,49.8
		z"/>
	<path class="st5" d="M87.5,27.7c0.1,0,0.2,4.9,0.2,10.9s-0.1,11-0.2,11s-0.2-4.9-0.2-11S87.4,27.7,87.5,27.7z"/>
	<path class="st5" d="M92.5,27.7c0.1,0,0.2,4.9,0.2,10.9s-0.1,11-0.2,11s-0.2-4.9-0.2-11S92.4,27.7,92.5,27.7z"/>
</g>
<g id="freepik--Notebook--inject-66">
	<polygon class="st4" points="190.7,373.9 246.5,376.3 247.9,379.5 211.3,438.9 145.2,437 	"/>
	<polygon class="st6" points="142.7,431.2 209.2,435 243.9,381.1 219.5,383.1 157.8,404.8 	"/>
	<path class="st7" d="M133.4,427.2l61,1c-2.5-7.8,3.4-18.8,11.6-22.5c5.4-2.5,15.7-5.6,21-8.3c10-5.1,19.1-14.9,18.3-23.3l-25.1-0.8
		l-32-1.2c-2.7,7.9-8.4,13.1-17.1,16.3c-7.8,2.8-16.6,2.8-24.2,6C134.7,399.4,128.8,416,133.4,427.2"/>
	<path class="st4" d="M133.4,427.2c0,0-0.1-0.1-0.1-0.4l-0.4-1.2c-0.2-0.7-0.4-1.3-0.5-2c-0.2-0.9-0.3-1.8-0.4-2.8
		c-0.2-2.6,0-5.2,0.5-7.8c0.7-3.4,2-6.7,3.9-9.7c0.5-0.9,1.1-1.7,1.8-2.5c0.3-0.4,0.6-0.8,1-1.2l1.1-1.1c0.4-0.4,0.8-0.8,1.2-1.1
		c0.4-0.4,0.9-0.7,1.3-1c1-0.7,2-1.3,3-1.8c4.2-2.1,9.3-3,14.5-4c2.6-0.5,5.4-1,8.1-1.7c2.8-0.8,5.5-1.9,8-3.2
		c1.3-0.7,2.6-1.5,3.8-2.5c1.2-0.9,2.3-2,3.3-3.1c2.1-2.4,3.6-5.2,4.6-8.2l0.1-0.2h0.2l26.6,1c9.2,0.4,18.8,0.6,28.6,0.9l1.8,0.1
		h0.2v0.2c0.1,1.9-0.1,3.8-0.8,5.6c-0.3,0.9-0.7,1.8-1.1,2.6c-0.4,0.8-0.9,1.6-1.5,2.4c-2.1,3-4.7,5.7-7.6,8
		c-2.8,2.2-5.9,4.1-9.1,5.6c-3.2,1.5-6.5,2.6-9.7,3.8s-6.4,2.3-9.3,3.6c-1.5,0.7-2.9,1.5-4.1,2.5c-0.6,0.5-1.2,1-1.8,1.6
		s-1.1,1.1-1.6,1.8c-1.9,2.4-3.4,5.1-4.3,8c-0.9,2.8-0.9,5.7-0.1,8.5l0.1,0.3h-0.3l-44.4-0.8l-12.3-0.2l-3.2-0.1L133.4,427.2
		c0,0,0.4,0,1.1,0h3.2l12.3,0.1l44.4,0.6l-0.2,0.3c-0.8-2.9-0.8-5.9,0.1-8.8c0.9-3,2.3-5.8,4.3-8.2c0.5-0.6,1.1-1.2,1.6-1.8
		s1.2-1.1,1.8-1.6c1.3-1,2.7-1.9,4.2-2.5c3-1.3,6.2-2.5,9.4-3.6s6.4-2.4,9.6-3.8c3.2-1.5,6.2-3.4,9-5.6c2.9-2.2,5.4-4.9,7.5-7.9
		c0.5-0.7,1-1.5,1.4-2.3c0.4-0.8,0.8-1.7,1.1-2.5c0.6-1.7,0.9-3.6,0.8-5.4l0.2,0.2l-1.8,0c-9.8-0.3-19.4-0.6-28.6-1l-26.7-1l0.2-0.2
		c-1,3.1-2.6,5.9-4.7,8.3c-1,1.2-2.2,2.3-3.4,3.2c-1.2,0.9-2.5,1.8-3.8,2.5c-2.6,1.4-5.3,2.5-8.1,3.3c-2.8,0.8-5.5,1.2-8.1,1.7
		c-5.3,0.9-10.3,1.8-14.5,3.9c-1,0.5-2,1.1-2.9,1.7c-0.5,0.3-0.9,0.7-1.3,1c-0.4,0.3-0.8,0.7-1.2,1.1l-1.2,1.2
		c-0.4,0.4-0.7,0.8-1,1.2c-0.6,0.8-1.2,1.6-1.8,2.4c-1.9,2.9-3.2,6.2-3.9,9.6c-0.5,2.5-0.7,5.1-0.6,7.7c0.1,0.9,0.2,1.9,0.4,2.8
		c0.1,0.7,0.3,1.3,0.5,2c0.2,0.5,0.3,0.9,0.4,1.2S133.4,427.2,133.4,427.2z"/>
	<path class="st4" d="M205.4,373c0,0,0.1-0.4,0.1-1.1c0.1-1-0.1-2-0.5-2.9c-0.5-1.4-1.6-2.5-2.9-3.1c-3.3-1.5-7.2-0.1-8.8,3.2
		c0,0.1-0.1,0.1-0.1,0.2c-0.6,1.3-0.8,2.8-0.6,4.2c0.1,1,0.5,1.9,1,2.7c0.4,0.6,0.7,0.9,0.6,0.9c-0.3-0.2-0.6-0.5-0.8-0.8
		c-0.6-0.8-1-1.8-1.2-2.8c-0.3-1.5-0.1-3.1,0.5-4.5c1.5-3.6,5.6-5.3,9.2-3.8c0.1,0,0.2,0.1,0.3,0.1c1.4,0.7,2.5,1.9,3,3.4
		c0.4,1,0.5,2,0.3,3c0,0.3-0.1,0.5-0.2,0.8C205.5,372.9,205.4,373,205.4,373z"/>
	<path class="st4" d="M215,373c0,0,0.1-0.4,0.1-1.1c0.1-1-0.1-2-0.5-2.9c-0.5-1.4-1.6-2.5-2.9-3.1c-3.3-1.5-7.2-0.1-8.8,3.2
		c0,0.1-0.1,0.1-0.1,0.2c-0.6,1.3-0.8,2.8-0.6,4.2c0.1,1,0.5,1.9,1,2.7c0.4,0.6,0.7,0.9,0.6,0.9c-0.3-0.2-0.6-0.5-0.8-0.8
		c-0.6-0.8-1-1.8-1.2-2.8c-0.3-1.5-0.1-3.1,0.5-4.5c1.5-3.6,5.6-5.3,9.2-3.8c0.1,0,0.2,0.1,0.3,0.1c1.4,0.7,2.5,1.9,3,3.4
		c0.4,1,0.5,2,0.4,3c0,0.3-0.1,0.5-0.2,0.8C215,372.8,215,372.9,215,373z"/>
	<path class="st4" d="M222.2,373.5c0,0,0.1-0.4,0.1-1.1c0-1-0.2-2-0.6-2.9c-0.6-1.3-1.7-2.4-3.1-2.9c-1.7-0.7-3.5-0.6-5.1,0.1
		c-1.6,0.7-2.9,2.1-3.5,3.8c-0.5,1.4-0.7,2.8-0.4,4.3c0.2,1,0.6,1.9,1.2,2.7c0.4,0.6,0.7,0.8,0.7,0.9c-0.3-0.2-0.6-0.4-0.8-0.8
		c-0.7-0.8-1.1-1.7-1.4-2.7c-0.4-1.5-0.3-3.1,0.3-4.5c1.3-3.6,5.3-5.6,8.9-4.3c0.1,0,0.2,0.1,0.3,0.1c1.4,0.6,2.6,1.8,3.2,3.2
		c0.4,0.9,0.6,2,0.5,3c0,0.3-0.1,0.6-0.2,0.8C222.3,373.4,222.2,373.5,222.2,373.5z"/>
	<path class="st4" d="M230,374c0,0,0-0.4,0-1.1c0-1-0.3-2-0.8-2.8c-0.7-1.3-1.8-2.3-3.2-2.8c-3.5-1.2-7.2,0.7-8.4,4.1
		c0,0.1,0,0.1-0.1,0.2c-0.5,1.4-0.5,2.9-0.1,4.3c0.3,1,0.7,1.8,1.3,2.6c0.4,0.5,0.8,0.8,0.7,0.8c-0.3-0.2-0.6-0.4-0.9-0.7
		c-0.7-0.8-1.2-1.7-1.5-2.6c-0.5-1.5-0.5-3.1,0-4.5c0.5-1.8,1.8-3.4,3.5-4.3c1.7-0.9,3.7-1,5.5-0.4c1.5,0.5,2.7,1.6,3.4,3
		c0.5,0.9,0.7,2,0.7,3c0,0.3,0,0.6-0.1,0.8C230.1,373.9,230,374,230,374z"/>
	<path class="st4" d="M237.8,373.8c0,0,0-0.4,0-1.1c-0.1-1-0.4-1.9-0.9-2.8c-0.7-1.3-1.9-2.2-3.3-2.7c-3.5-1.1-7.2,0.9-8.2,4.3
		c0,0.1,0,0.2-0.1,0.2c-0.7,2.4-0.2,5,1.4,6.9c0.5,0.5,0.8,0.8,0.8,0.8c-0.3-0.2-0.6-0.4-0.9-0.7c-0.7-0.7-1.3-1.6-1.6-2.6
		c-0.5-1.5-0.5-3-0.1-4.5c0.5-1.9,1.7-3.4,3.4-4.4c1.7-0.9,3.7-1.1,5.5-0.5c1.5,0.5,2.7,1.5,3.5,2.9c0.5,0.9,0.8,2,0.8,3
		c0,0.3,0,0.6-0.1,0.8C237.9,373.7,237.8,373.8,237.8,373.8z"/>
	<path class="st4" d="M244.4,374.6c0,0,0-0.4,0-1.1c0-1-0.3-2-0.8-2.8c-0.7-1.3-1.8-2.3-3.2-2.8c-3.4-1.2-7.2,0.6-8.4,4
		c0,0.1,0,0.1-0.1,0.2c-0.8,2.3-0.4,5,1.1,6.9c0.4,0.5,0.7,0.8,0.7,0.8c-0.3-0.2-0.6-0.4-0.9-0.7c-0.7-0.8-1.2-1.7-1.5-2.7
		c-0.4-1.5-0.4-3.1,0.1-4.5c0.6-1.8,1.9-3.4,3.6-4.2c1.7-0.9,3.7-1,5.5-0.3c1.5,0.6,2.6,1.7,3.3,3.1c0.5,0.9,0.7,2,0.6,3
		c0,0.3-0.1,0.6-0.1,0.8C244.5,374.6,244.4,374.7,244.4,374.6z"/>
</g>
<g id="freepik--air-balloon--inject-66">
	<path class="st0" d="M273.2,169.8c-2.8-0.1-5.5,0-8.3,0.4c-17.2,2.2-30.1,16.9-30,34.3c0,5.5,0.7,11,2.1,16.4
		c4.8,17.1,6.3,32.1,5.7,39.4l16.1,8.6c0,0,7.5-10.7,14.6-15.3s31.2-17,40.6-29.6c6.1-8.2,7.3-25-7.3-39.7
		C298,175.3,285.9,170.1,273.2,169.8z"/>
	<polygon class="st8" points="235.1,278.9 249.7,286.7 240.2,298.7 230.5,294.3 	"/>
	<path class="st4" d="M235.8,279.3c-0.1,0,1.3-4.4,3.2-9.6s3.6-9.5,3.7-9.5s-1.3,4.4-3.2,9.6S236,279.4,235.8,279.3z"/>
	<path class="st4" d="M248.7,286.1c-0.1-0.1,2.2-4.1,5.1-9.1s5.4-8.9,5.5-8.9s-2.2,4.1-5.1,9.1S248.9,286.2,248.7,286.1z"/>
	<g class="st9">
		<path d="M278,170.3c-0.6,0-8.6,9.4-12.2,15.7c-11.9,21.3-12.5,42.1-15.8,66.3c-0.5,3.5-2.2,10.9-2.2,10.7c1.8,1.4,7.7,4.1,7.7,4.1
			s5.6-6.7,7.8-10.1c8.9-13.6,18.5-24.2,26.1-38.5s14.9-27,7.9-41.7C297.4,176.9,285.2,169.8,278,170.3z"/>
	</g>
	<path class="st4" d="M314.2,226c-0.1-0.1-0.2-0.3-0.2-0.5c-0.1-0.3-0.3-0.8-0.6-1.4c-0.8-1.7-1.7-3.3-2.8-4.7
		c-1.7-2.3-3.8-4.2-6.2-5.8c-3-2-6.5-3.3-10.1-3.8h-0.1l-0.1-0.1c-1.9-2.7-4.1-5.2-6.5-7.5c-2.6-2.5-5.6-4.6-8.9-6.1
		c-3.3-1.5-6.9-2.2-10.5-2c-3.3,0.1-6.5,1.2-9.2,3.1l-0.1,0.1l-0.1-0.1c-2.7-2.4-6.2-3.9-9.8-4.4c-2.8-0.3-5.7,0-8.3,1.1
		c-1.7,0.7-3.3,1.6-4.8,2.7c-0.5,0.4-0.9,0.7-1.1,0.9c-0.1,0.1-0.2,0.2-0.4,0.3c0.1-0.1,0.2-0.3,0.3-0.4c0.2-0.2,0.6-0.6,1.1-1
		c1.4-1.2,3-2.1,4.8-2.8c2.7-1.1,5.6-1.5,8.5-1.2c3.7,0.4,7.2,1.9,10,4.4h-0.3c2.8-1.9,6-3,9.4-3.2c3.7-0.2,7.3,0.5,10.7,2
		c3.3,1.6,6.4,3.7,9,6.2c2.4,2.3,4.6,4.8,6.5,7.6l-0.1-0.1c3.7,0.5,7.2,1.8,10.3,3.9c2.4,1.6,4.5,3.6,6.2,5.9c1.1,1.5,2,3.1,2.7,4.8
		c0.2,0.6,0.4,1.1,0.5,1.4C314.1,225.7,314.2,225.9,314.2,226z"/>
	<path class="st4" d="M284.3,247.3c-0.2-1.2-0.7-2.4-1.4-3.5c-0.8-1.2-1.8-2.2-3.1-3c-1.6-1-3.5-1.4-5.3-1.3h-0.2v-0.2
		c-0.8-4.9-4.1-9-8.6-10.9c-2-0.8-4.1-1.1-6.2-1c-2,0.1-3.9,0.7-5.6,1.6l-0.1,0.1l-0.1-0.1c-1.5-1.6-3.5-2.6-5.6-3
		c-1.7-0.3-3.4-0.3-5,0.2c-1.4,0.4-2.8,1.1-4,2c0,0,0.1-0.1,0.2-0.2s0.4-0.3,0.7-0.6c0.9-0.6,1.9-1.1,3-1.5c1.7-0.5,3.4-0.6,5.1-0.3
		c2.2,0.4,4.3,1.5,5.9,3.1l-0.3,0c1.8-0.9,3.7-1.5,5.7-1.7c2.2-0.2,4.4,0.2,6.5,1c2.5,1,4.6,2.7,6.2,4.8c1.4,1.9,2.3,4.1,2.7,6.4
		l-0.2-0.2c2-0.2,3.9,0.3,5.5,1.4c1.3,0.8,2.3,1.9,3.1,3.1c0.5,0.8,0.9,1.7,1.1,2.6c0.1,0.2,0.1,0.5,0.1,0.7
		C284.3,247.2,284.3,247.2,284.3,247.3z"/>
	<path class="st4" d="M246.8,290.5c0,0-0.2-0.2-0.5-0.4c-0.6-0.2-1.2-0.1-1.7,0.1c-0.4,0.1-0.9,0.2-1.3,0.2c-0.5,0-1.1-0.2-1.4-0.6
		c-0.8-0.8-1.1-2-1.8-2.8c-0.3-0.4-0.8-0.6-1.3-0.6c-0.5,0.1-1,0.2-1.5,0.3c-0.5,0.1-1,0.2-1.5,0.1c-1.1-0.3-1.9-1.1-2.1-2.2
		c-0.1-0.2-0.1-0.5,0-0.7c0,0,0,0.2,0.2,0.6c0.2,0.6,0.5,1,1,1.4c0.3,0.2,0.7,0.4,1,0.5c0.4,0.1,0.9,0,1.3-0.1
		c0.5-0.2,1.1-0.3,1.6-0.3c0.7,0,1.3,0.2,1.7,0.7c0.9,1,1.1,2.1,1.8,2.8c0.3,0.3,0.7,0.5,1.1,0.5c0.4,0,0.8-0.1,1.2-0.2
		c0.6-0.2,1.3-0.1,1.9,0.1C246.8,290.2,246.9,290.5,246.8,290.5z"/>
	<path class="st4" d="M248.5,288.1c-2.4-1-4.8-2.2-7.1-3.5c-2.4-1.2-4.7-2.5-6.9-3.9c2.4,1,4.8,2.2,7.1,3.5
		C244,285.4,246.3,286.7,248.5,288.1z"/>
	<path class="st4" d="M245.6,291.8c0,0-0.2,0.1-0.5,0.3c-0.2,0.1-0.4,0.2-0.7,0.3c-0.3,0.1-0.7,0.2-1,0.1c-0.9,0-1.7-0.4-2.4-0.9
		c-0.4-0.3-0.7-0.8-0.9-1.2c-0.2-0.5-0.4-0.9-0.7-1.3c-0.7-0.6-1.7-0.9-2.6-0.8c-0.9,0.1-1.7,0-2.5-0.2c-0.6-0.2-1-0.6-1.3-1.2
		c-0.2-0.4-0.1-0.6-0.1-0.6s0.1,0.2,0.3,0.5c0.3,0.4,0.7,0.8,1.2,0.9c0.8,0.2,1.6,0.2,2.4,0.1c1.1-0.2,2.2,0.2,3,0.9
		c0.3,0.4,0.6,0.9,0.8,1.5c0.2,0.4,0.4,0.8,0.8,1.1c0.6,0.5,1.3,0.8,2.1,0.9c0.5,0,1.1,0,1.6-0.3
		C245.4,291.8,245.6,291.8,245.6,291.8z"/>
</g>
<g id="freepik--Character--inject-66">
	<path class="st0" d="M135.8,198.4l25.1-3.7l-12-17l-6.4,0.4c-4.3,0.2-8.2,2.9-9.9,6.9l0,0c-0.9,2.1-1.2,4.5-0.7,6.7L135.8,198.4z"
		/>
	<path class="st10" d="M135.8,198.4l25.1-3.7l-12-17l-6.4,0.4c-4.3,0.2-8.2,2.9-9.9,6.9l0,0c-0.9,2.1-1.2,4.5-0.7,6.7L135.8,198.4z"
		/>
	<path class="st3" d="M243.9,226.3c0.3,0.7,0.5,1.6,0.8,2.6c0.2,0.9,0.3,1.8,0.3,2.7c0,1.1-0.2,2.2-0.6,3.3c-0.4,1,0.5,1.9,1.4,1.4
		s2-3.1,2-6.4s3.3,0.7,4.6,2.1s5.4,5.7,6.2,5.7c1.1-0.1,1.2-1.2-0.1-2.7s-4.9-5.9-4.1-6.5s7.1,6.8,7.1,6.8s1.1,1.8,2,1.1
		c1.7-1.3-5.6-8.7-6.4-9.3c-0.5-0.5,0.3-1.2,0.9-0.7s6.2,7.5,7.9,6.3c1.3-1-6-6.1-6.4-8.2s5.2,4.5,6.4,3.5c0.5-0.4,0.8-0.7-3-4
		c-1.8-1.6-8.7-6.4-8.7-6.4l-20.6-59.1l-15.9,9.1L243.9,226.3z"/>
	<path class="st3" d="M121,114.5L97.9,87l0,0c-0.3-0.9-0.7-1.9-1.1-2.8c-1.1-2.2-3.1-3.9-5.4-4.5c-1.5-0.3-3.1-0.2-4.3-1.1
		c-0.5-0.4-0.9-1-1.4-1.4s-1.4-0.5-1.8,0.1c-0.2,0.5-0.1,1,0.1,1.4c0.9,2,2.2,3.8,4,5.2c-2.2,0.7-5.2,1.7-5.2,1.7s-4.9-5.3-7.4-5.3
		s2,4.7,2,4.7s-4-3.7-5.2-2.7s1.9,3.8,1.9,3.8c-1-0.6-2.1-1-3.2-0.9c-1.1,0.2-2.1,1.5-1.5,2.5c0.3,0.3,0.6,0.6,1,0.8l6.1,3.4
		c1,0.7,2.1,1.1,3.3,1.2c3.1,0.1,5.5-1.8,8.6-1.8c0,0,17.4,36.6,19.1,38.5s40,4.5,40,4.5l22.1-19.1L121,114.5z"/>
	<path class="st0" d="M190.3,314l23.5,10.2l-12.6,29.4c-2.7-1.4-1.8-19-1.8-19l-15.4-6L190.3,314z"/>
	<g class="st11">
		<path class="st2" d="M202,325c0.4-0.5,1.2-0.6,1.7-0.2c0.5,0.4,0.6,1.2,0.2,1.7c-0.5,0.5-1.2,0.6-1.8,0.2
			c-0.5-0.5-0.5-1.3-0.1-1.8"/>
	</g>
	<path class="st12" d="M213.8,324.2l-2.4-0.9l-11.2,28.5c0,0,0,1.6,1,1.8L213.8,324.2z"/>
	<path class="st4" d="M199,335c0.1,0,0.5-0.6,1.3-1.1s1.5-0.6,1.5-0.8s-0.9-0.3-1.8,0.3S198.9,335,199,335z"/>
	<path class="st4" d="M199,338.6c0.1,0.1,0.6-0.4,1.5-0.6s1.5-0.1,1.6-0.2s-0.7-0.6-1.7-0.3S198.8,338.6,199,338.6z"/>
	<path class="st4" d="M201.9,342c0.1-0.1-0.5-0.6-1.5-0.6s-1.5,0.6-1.5,0.7s0.7-0.1,1.5-0.1S201.8,342.1,201.9,342z"/>
	<path class="st4" d="M195.7,333.3c0.2,0,0.2-0.8,0.6-1.5s0.9-1.3,0.8-1.4s-0.9,0.3-1.3,1.2S195.5,333.3,195.7,333.3z"/>
	<path class="st4" d="M192.5,331.1c0.1,0,0.4-0.5,0.6-1.5c0.1-0.6,0.2-1.2,0.2-1.7c0-0.3,0-0.7-0.1-1c0-0.2-0.1-0.4-0.2-0.6
		c-0.1-0.3-0.4-0.4-0.7-0.4c-0.3,0.1-0.5,0.2-0.6,0.5c-0.1,0.2-0.1,0.4-0.2,0.6c-0.2,0.9-0.1,1.9,0.2,2.8c0.3,1,0.8,1.4,0.8,1.4
		s-0.2-0.6-0.5-1.5c-0.1-0.5-0.2-1.1-0.2-1.6c0-0.3,0-0.7,0.1-1c0-0.3,0.2-0.6,0.3-0.6s0.1,0,0.1,0.1c0.1,0.1,0.1,0.3,0.1,0.4
		c0.1,0.3,0.1,0.7,0.1,1c0,0.6,0,1.1-0.1,1.6C192.6,330.1,192.5,330.6,192.5,331.1z"/>
	<path class="st4" d="M192.8,331c0,0-0.3-0.5-1.2-1c-0.5-0.3-1.1-0.4-1.7-0.5c-0.3,0-0.7,0-1,0c-0.5,0-0.9,0.2-1.1,0.6
		c-0.1,0.3,0,0.6,0.1,0.8c0.1,0.1,0.3,0.3,0.5,0.4c0.3,0.2,0.6,0.3,1,0.4c0.6,0.1,1.2,0.1,1.8,0c1-0.2,1.4-0.8,1.4-0.8
		c-0.5,0.2-1,0.3-1.5,0.4c-0.5,0.1-1.1,0-1.6-0.1c-0.3-0.1-0.6-0.2-0.8-0.4c-0.3-0.2-0.5-0.4-0.4-0.5c0.2-0.2,0.4-0.3,0.7-0.3
		c0.3,0,0.7,0,1,0c0.5,0,1.1,0.2,1.6,0.3C192.2,330.7,192.7,331,192.8,331z"/>
	<path class="st0" d="M172.1,354.3l9.7,20.4l3.1,18.4c0.2,1.3,1.4,2.1,2.7,1.9c0.1,0,0.1,0,0.2,0l0,0c0.7-0.2,1.3-0.7,1.6-1.4
		c1.8-4.4,8.3-20.8,7.5-22.2c-0.9-1.7-8.9-22.2-8.9-22.2L172.1,354.3z"/>
	<path class="st12" d="M187.7,395l8.5-25l0.4,0.9c0.3,0.8,0.4,1.6,0.2,2.4c-0.6,2.1-2.5,8-7.4,20.3
		C189.1,394.3,188.5,394.8,187.7,395z"/>
	<g class="st11">
		<path class="st2" d="M189,365.2c-0.4,0.6-0.2,1.4,0.4,1.8c0.6,0.4,1.4,0.2,1.8-0.4c0.4-0.7,0.2-1.5-0.4-1.9
			c-0.7-0.3-1.5-0.1-1.8,0.6"/>
	</g>
	<path class="st4" d="M188.4,383.8c-1.5-1-3.5-1.1-5.1-0.2c0,0,0.1-0.3,0.6-0.6c0.6-0.4,1.3-0.5,2-0.5c0.7,0,1.4,0.2,2,0.6
		C188.3,383.5,188.4,383.8,188.4,383.8z"/>
	<path class="st4" d="M188.2,387.3c-0.7-0.1-1.5-0.1-2.2-0.1c-0.7,0.2-1.4,0.4-2.1,0.6c-0.1-0.1,0.7-1,2.1-1.1
		C186.7,386.5,187.6,386.7,188.2,387.3z"/>
	<path class="st4" d="M189.5,379.1c-1.1-0.2-2.3-0.3-3.4-0.3c-1.1,0.1-2.3,0.3-3.4,0.7C184.7,378,187.4,377.8,189.5,379.1
		L189.5,379.1z"/>
	<path class="st4" d="M187.1,372.6c0,0.1-1.4,0.2-2.9,0.8s-2.5,1.5-2.6,1.4c0.6-0.9,1.4-1.5,2.4-1.9
		C185,372.5,186.1,372.4,187.1,372.6z"/>
	<path class="st4" d="M184.4,366.5c-1,0.1-2,0.4-3,0.8c-0.9,0.5-1.7,1.2-2.4,1.9c0,0,0-0.4,0.4-0.9c0.5-0.6,1.1-1.1,1.8-1.5
		c0.7-0.4,1.5-0.5,2.3-0.5C184,366.4,184.4,366.5,184.4,366.5z"/>
	<path class="st4" d="M180.9,366.1c-0.2-0.2-0.3-0.5-0.4-0.8c-0.2-0.7-0.3-1.5-0.3-2.3c0-0.6,0.2-1.1,0.5-1.6c0.3-0.3,0.6-0.4,1-0.2
		c0.3,0.2,0.6,0.4,0.8,0.8c0.5,1.5,0,3.1-1.4,3.9c-1.3,0.8-3,0.7-4.2-0.3c-0.3-0.2-0.5-0.6-0.5-1c0-0.4,0.3-0.7,0.7-0.8
		c0.6-0.1,1.1-0.1,1.7,0.1c0.8,0.2,1.5,0.5,2.1,1c0.5,0.3,0.6,0.5,0.6,0.6c-0.9-0.5-1.8-0.9-2.8-1.2c-0.5-0.1-1-0.2-1.5,0
		c-0.2,0.1-0.4,0.2-0.4,0.5c0,0.2,0.2,0.5,0.4,0.6c1.1,0.8,2.5,0.9,3.7,0.2c1.2-0.7,1.7-2.1,1.3-3.4c-0.1-0.2-0.3-0.4-0.5-0.6
		c-0.2-0.1-0.4,0-0.6,0.1c-0.3,0.4-0.5,0.9-0.5,1.4C180.5,364.1,180.6,365.1,180.9,366.1z"/>
	<path class="st4" d="M204.9,316.5l-26.7-18l8.8-86.8l-25.3-14.8l-23.1-5.4c0,0-9.7,20.1-14,33c-9.1,27.4-15.6,37.2-14.1,57
		c0.5,6.3,23.6,22,38.3,30.7c0.2,1.7,0.4,3.5,0.8,5.2c5,22.6,20.3,52.7,20.3,52.7l23.2-10.8l-7.5-25.6l7.8,4.5L204.9,316.5z
		 M147.5,260.5l3.1-13.9c-0.7,8.9-1.3,18.1-1.7,26.9C147.5,269.3,147,264.9,147.5,260.5L147.5,260.5z"/>
	<path class="st8" d="M169.9,370.1c-0.1-0.1-0.1-0.2-0.2-0.4l-0.5-1.1l-1.8-4.2c-1.5-3.7-3.8-9-6.4-15.6s-5.8-14.5-9-23.4
		c-0.8-2.2-1.6-4.5-2.3-6.9c-0.3-1.2-0.7-2.4-0.9-3.6c-0.1-0.3-0.1-0.6-0.2-0.9l-0.1-1l-0.2-1.9c-0.3-2.6-0.5-5.2-0.7-7.8
		c-0.1-1.3-0.1-2.7-0.2-4s-0.1-2.7,0-4.1c0.4-10.9,1.3-21.2,2.1-30.6s1.5-17.9,2.1-25s1-12.9,1.2-16.9c0.1-2,0.2-3.5,0.2-4.6
		l0.1-1.2c0-0.1,0-0.3,0-0.4c0,0.1,0,0.3,0,0.4c0,0.3,0,0.7,0,1.2c0,1.1-0.1,2.6-0.1,4.6c-0.2,4-0.5,9.8-1.1,16.9s-1.2,15.6-2,25
		s-1.6,19.8-2,30.6c-0.1,1.4,0,2.7,0,4s0.1,2.7,0.2,4c0.2,2.7,0.4,5.3,0.6,7.8l0.2,1.9l0.1,0.9c0.1,0.3,0.1,0.6,0.2,0.9
		c0.2,1.2,0.6,2.4,0.9,3.6c0.7,2.4,1.5,4.6,2.3,6.9c3.1,8.9,6.2,16.8,8.9,23.5s4.8,12,6.3,15.7c0.7,1.8,1.3,3.3,1.7,4.3
		c0.2,0.5,0.3,0.8,0.4,1.1S169.9,370.1,169.9,370.1z"/>
	<path class="st8" d="M152.1,213.5c0,0-0.2-0.1-0.6-0.5c-0.5-0.5-0.9-1.2-1.1-1.8c-0.8-2.2-1.2-4.5-1.1-6.9c0-2.3,0.1-4.7,0.3-7
		c0-1,0.2-1.9,0.4-2.9c0.1,1,0.1,1.9,0,2.9c-0.1,1.8-0.2,4.2-0.2,6.9c0,2.3,0.3,4.6,1,6.8c0.2,0.6,0.6,1.3,0.9,1.8
		C151.9,213.3,152.1,213.5,152.1,213.5z"/>
	<path class="st8" d="M142.1,192.9c0.2,0.8,0.3,1.6,0.2,2.4c-0.3,4.1-2.7,7.6-6.4,9.4c-0.7,0.4-1.5,0.6-2.3,0.7c0-0.1,0.9-0.3,2.2-1
		c3.4-1.8,5.8-5.2,6.2-9.1C142.1,193.8,142,192.9,142.1,192.9z"/>
	<path class="st8" d="M183.6,243.3c0,0,0,0.1,0,0.3s0,0.5-0.1,0.8c-0.1,0.7-0.2,1.7-0.3,3c-0.3,2.6-0.7,6.3-1.2,10.9
		c-1,9.2-2.5,21.9-4.1,35.9c-0.6,6.6-0.1,13.2,1.3,19.7c0.6,2.8,1.4,5.6,2.4,8.3c0.9,2.6,1.7,5,2.5,7.1c1.5,4.3,2.7,7.9,3.6,10.4
		c0.4,1.2,0.7,2.1,1,2.8l0.2,0.7c0,0.1,0.1,0.2,0.1,0.2c0,0,0-0.1-0.1-0.2s-0.2-0.4-0.3-0.7c-0.3-0.7-0.6-1.6-1-2.8l-3.7-10.3
		c-0.8-2.2-1.6-4.6-2.6-7.1c-1-2.7-1.8-5.5-2.5-8.4c-1.5-6.5-1.9-13.2-1.4-19.8c1.6-14,3.1-26.7,4.2-35.9c0.6-4.6,1-8.3,1.4-10.9
		c0.2-1.3,0.3-2.2,0.4-3c0-0.3,0.1-0.6,0.1-0.8C183.6,243.5,183.6,243.4,183.6,243.3z"/>
	<polyline class="st3" points="138.6,191.4 142.7,180.9 152.1,194.9 139.6,191.8 	"/>
	<path class="st0" d="M236.5,159.9l-11.1-24.9c-1.3-4-3.8-4.6-5.9-6.9l-27.8-15.7c-20.3-8.3-31.3,19.5-31.3,19.5L142,174
		c-21.6,7.2-6.3,23.8-6.3,23.8s-5.9-10.2-0.1-13.9c6.1-3.9,12.8,6.3,19.2,16c7.6,11.4,32.4,18.8,32.4,18.8
		c2.9-3.1,2.1-13.8,4.4-19.5c0.7-1.8,17.9-41.6,17.9-41.6l6.6,16.1c0,0,8.5-10,12.7-11.6C231.3,161.2,233.8,160.5,236.5,159.9z"/>
	<path class="st4" d="M187.2,177.6c-0.3,0.2-0.5,0.4-0.8,0.6c-0.8,0.5-1.7,0.9-2.5,1.2c-5.9,2.2-12.6,1.2-17.6-2.7
		c-0.7-0.6-1.4-1.2-2.1-1.9c-0.2-0.2-0.5-0.5-0.6-0.8c0.1-0.1,1,1.1,2.9,2.4c5,3.7,11.4,4.7,17.2,2.7
		C185.9,178.3,187.2,177.5,187.2,177.6z"/>
	<path class="st0" d="M141.2,138.1L141.2,138.1l17.1,1.6l27.4-29l-16.1-0.6l-28.7,2.8C142.4,121.3,142.5,129.8,141.2,138.1z"/>
	<path class="st4" d="M165,122.9c0,0.2-0.1,0.4-0.2,0.5l-0.7,1.5c-0.6,1.3-1.5,3.2-2.5,5.4c-2.1,4.6-5,11-8,18.1s-5.9,13.5-8,18.1
		c-1.1,2.3-1.9,4.2-2.5,5.4l-0.7,1.5c-0.1,0.2-0.2,0.3-0.3,0.5c0.1-0.2,0.1-0.4,0.2-0.5l0.6-1.5l2.4-5.5c2-4.7,4.8-11.1,7.8-18.2
		s6-13.5,8.2-18.1c1.1-2.3,2-4.1,2.7-5.4c0.3-0.6,0.6-1.1,0.8-1.4C164.8,123.2,164.9,123,165,122.9z"/>
	<path class="st4" d="M217.3,131.3c0,0.1-1,0.6-2.5,1.9c-0.8,0.7-1.6,1.5-2.3,2.4c-0.8,1.1-1.6,2.2-2.2,3.4c-0.6,1.2-1,2.5-1.4,3.8
		c-0.3,1.1-0.4,2.2-0.4,3.3c-0.1,1.9,0.1,3.1,0,3.1c-0.1-0.3-0.2-0.5-0.2-0.8c-0.1-0.3-0.1-0.7-0.1-1c-0.1-0.4-0.1-0.9-0.1-1.3
		c0-1.1,0.1-2.3,0.4-3.4c0.3-1.4,0.8-2.7,1.4-4c0.6-1.3,1.4-2.4,2.3-3.5c0.7-0.9,1.6-1.7,2.5-2.4c0.3-0.3,0.7-0.5,1.1-0.8
		c0.3-0.2,0.6-0.4,0.9-0.5C216.8,131.5,217.1,131.4,217.3,131.3z"/>
	<path class="st3" d="M222.1,91.5L206,121.6c-2.6,4.9-8.6,7-13.7,4.7l0,0c-5.3-2.4-7.7-8.7-5.3-14c0.1-0.2,0.2-0.4,0.3-0.6l2.8-5.2
		c0,0-7-4.5-3.7-12.1c2.9-6.7,13.6-25.8,15.9-29.8l13.6,6.1c7.5,3.9,10.4,13.1,6.5,20.5C222.3,91.2,222.2,91.4,222.1,91.5z"/>
	<path class="st13" d="M190.1,106.3c3.4,1.6,7.3,2.2,11,1.6c0,0-4.7,4.4-11.9,0.3L190.1,106.3z"/>
	<path class="st4" d="M195.3,82.2c-0.3,0.6,0,1.3,0.5,1.6c0.5,0.3,1.2,0.1,1.5-0.5c0,0,0,0,0,0c0.3-0.6,0-1.3-0.5-1.6
		C196.3,81.5,195.6,81.7,195.3,82.2C195.3,82.2,195.3,82.2,195.3,82.2z"/>
	<path class="st4" d="M195.3,81.3c0.1,0.2,1.1,0,2.3,0.5s1.7,1.5,1.9,1.4s0.1-0.3-0.2-0.8c-0.3-0.6-0.9-1-1.5-1.3
		c-0.6-0.3-1.3-0.3-1.9-0.2C195.5,81,195.3,81.1,195.3,81.3z"/>
	<path class="st4" d="M206.1,87.5c-0.3,0.6,0,1.3,0.5,1.6c0.5,0.3,1.2,0.1,1.5-0.5c0,0,0,0,0,0c0.3-0.6,0-1.3-0.5-1.5
		C207.1,86.8,206.4,87,206.1,87.5C206.1,87.5,206.1,87.5,206.1,87.5z"/>
	<path class="st4" d="M206.6,86.6c0.1,0.2,1.1,0,2.3,0.5s1.7,1.5,1.9,1.4s0.1-0.3-0.2-0.8c-0.3-0.6-0.9-1-1.5-1.3
		c-0.6-0.3-1.3-0.3-1.9-0.2C206.8,86.3,206.6,86.5,206.6,86.6z"/>
	<path class="st4" d="M198.6,93.3c-0.5-0.5-1.1-0.9-1.7-1.2c-0.3-0.2-0.5-0.3-0.5-0.6s0.3-0.5,0.6-0.8l1.9-1.9
		c1.7-1.5,3.2-3.2,4.6-5c-1.8,1.4-3.5,2.9-5,4.6l-1.9,1.9c-0.3,0.3-0.6,0.7-0.7,1.1c0,0.2,0.1,0.5,0.3,0.7c0.1,0.1,0.3,0.2,0.5,0.3
		C197.3,92.8,197.9,93.1,198.6,93.3z"/>
	<path class="st4" d="M201.6,95.6c-0.2-0.1-0.7,1.2-2.2,1.6s-2.8-0.3-2.8-0.1s0.2,0.4,0.8,0.6c0.7,0.3,1.6,0.4,2.3,0.2
		c0.7-0.2,1.4-0.7,1.8-1.4C201.7,96,201.7,95.6,201.6,95.6z"/>
	<path class="st4" d="M208.3,81.9c0,0.4,1.2,0.7,2.5,1.5s2.2,1.6,2.5,1.4c0.1-0.1,0.1-0.5-0.2-1c-0.9-1.3-2.3-2.1-3.8-2.2
		C208.7,81.6,208.3,81.7,208.3,81.9z"/>
	<path class="st4" d="M197.3,78.1c0.1,0.4,1,0.4,2,0.8s1.7,1,2,0.8s0.1-0.4-0.1-0.8c-0.3-0.5-0.8-0.9-1.4-1.1
		c-0.6-0.2-1.2-0.3-1.8-0.2C197.5,77.7,197.2,77.9,197.3,78.1z"/>
	<path class="st3" d="M217.1,96c0.2,0,5.9,0.8,3.4,5.9s-7,1.6-7,1.4S217.1,96,217.1,96z"/>
	<path class="st13" d="M216,102.1c0,0,0.1,0.1,0.2,0.2c0.2,0.2,0.4,0.3,0.7,0.3c0.9-0.1,1.7-0.7,2-1.5c0.2-0.4,0.3-0.9,0.4-1.4
		c0.1-0.4-0.1-0.7-0.3-1c-0.2-0.2-0.5-0.2-0.6,0C218,98.9,218,99,218,99s-0.1-0.1,0.1-0.3c0.1-0.1,0.2-0.2,0.4-0.2
		c0.2,0,0.4,0,0.5,0.1c0.4,0.3,0.6,0.8,0.5,1.2c0,0.5-0.1,1.1-0.4,1.6c-0.4,0.9-1.3,1.6-2.4,1.6c-0.3-0.1-0.6-0.3-0.8-0.5
		C215.9,102.2,215.9,102.1,216,102.1z"/>
	<path class="st4" d="M220,97.1c-1-0.5-2.1-0.4-3,0.2c-0.7,0.6-1.1,1.4-1.8,2c-0.6,0.7-1.6,0.8-2.4,0.4c-0.5-0.4-0.7-1-0.5-1.6
		c0.1-0.6,0.4-1.2,0.7-1.7c1.4-2.3,2.9-4.4,4.1-6.8c1.3-2.3,1.8-5,1.6-7.7c-0.3-2.7-2-5-4.5-6.1c-1.6-0.6-3.5-0.4-5.2-0.9
		c-2-0.6-3.7-2.1-4.4-4.1c-0.2-0.4-0.4-0.8-0.7-1.1c0.1-0.1,0.7-1.1,1.2-1.3c4.5-1.5,10.5,0.2,14.2,3.1c3.8,3,6.1,7.5,6.3,12.3
		C225.8,88.5,222.8,93.7,220,97.1"/>
	<path class="st4" d="M220.1,96.6c1.4-2.4,3.7-4.1,5.4-6.3s3-5.2,1.7-7.7c-0.4-0.8-1.1-1.6-1.5-2.4c-0.3-0.9-0.4-1.9-0.5-2.8
		c-0.5-3-2.2-5.5-4.8-7c-1.8-1-3.8-1.4-5.6-2.3c-2.9-1.5-4.9-4.3-8-5.5c-1-0.5-2.1-0.5-3.1-0.1c-0.9,0.5-1.3,1.6-0.9,2.5
		c0,0.1,0.1,0.1,0.1,0.2c-0.2-0.9-1.1-1.4-2-1.2c-0.1,0-0.2,0.1-0.3,0.1c-0.9,0.5-1.4,1.4-1.3,2.4c0.1,1,0.5,1.9,1.1,2.6
		c1.9,2.6,4.6,4.5,7.7,5.3l6.9-0.5l5.7,4.2l4.2,6.7l-7.6,9.9L220.1,96.6z"/>
</g>
<g id="freepik--light-bulb--inject-66">
	<path class="st0" d="M176.9,57.2C176,43.8,164.4,33.6,151,34.5c-13.4,0.9-23.6,12.5-22.8,25.9c0.6,9.4,6.6,17.6,15.4,21.1
		c0.2,2.9,0.4,6.1,0.4,6.1l21.3-1.4c0,0-0.1-3.4-0.2-6.5C172.9,75,177.5,66.4,176.9,57.2z"/>
	<path class="st4" d="M157.6,86.7c0,0,0-0.1,0-0.3s0-0.5,0-0.9c0-0.8,0.1-1.9,0.2-3.4s0.3-3.3,0.6-5.3c0.4-2.4,1-4.7,1.8-6.9
		c0.5-1.3,1.1-2.6,1.8-3.8c0.4-0.7,0.9-1.2,1.6-1.6c0.7-0.4,1.6-0.4,2.3-0.1c0.4,0.2,0.7,0.5,0.8,0.9c0.2,0.4,0.2,0.9,0,1.3
		c-0.4,0.8-1,1.4-1.8,1.7c-3.4,1.3-7.3-0.4-8.7-3.8c0,0,0,0,0-0.1c-0.4-0.9-0.5-1.9-0.3-2.8c0.2-1,1.1-1.8,2.1-1.8
		c0.5,0,1,0.3,1.3,0.8c0.3,0.4,0.4,1,0.3,1.5c-0.2,1-0.8,1.9-1.6,2.5c-1.5,1.4-3.5,2.2-5.6,2c-2.1-0.2-3.9-1.4-4.9-3.2
		c-0.5-0.9-0.6-2-0.4-2.9c0.3-0.9,1.3-1.5,2.2-1.2c0.1,0,0.2,0.1,0.3,0.1c0.5,0.2,0.8,0.6,1.1,1c0.2,0.4,0.4,0.9,0.5,1.4
		c0.1,0.9,0.1,1.9-0.2,2.8c-0.5,1.8-1.6,3.3-3.2,4.3c-1.5,0.9-3.3,1.3-5,1c-0.8-0.1-1.6-0.4-2.3-1c-0.6-0.6-0.7-1.6-0.3-2.3
		c0.3-0.3,0.6-0.6,1.1-0.6c0.4-0.1,0.8,0,1.2,0.2c0.7,0.3,1.2,0.9,1.6,1.6c0.7,1.3,1.3,2.5,1.9,3.7c2.3,4.8,3.9,8.7,5,11.5
		c0.6,1.4,1,2.4,1.2,3.2c0.1,0.4,0.2,0.6,0.3,0.8c0,0.1,0.1,0.2,0.1,0.3l-0.1-0.3l-0.3-0.8l-1.3-3.2c-1.1-2.7-2.8-6.7-5.1-11.4
		c-0.6-1.2-1.2-2.4-1.9-3.7c-0.3-0.6-0.8-1.2-1.5-1.5c-0.7-0.3-1.5-0.2-1.9,0.4c-0.4,0.7-0.3,1.5,0.3,2c0.6,0.5,1.3,0.9,2.1,0.9
		c1.7,0.2,3.4-0.1,4.8-1c1.5-1,2.6-2.4,3-4.1c0.2-0.9,0.3-1.8,0.2-2.7c-0.1-0.9-0.6-1.7-1.4-2.2c-0.4-0.2-0.9-0.2-1.3,0
		c-0.4,0.2-0.7,0.6-0.8,1c-0.3,0.9-0.2,1.9,0.3,2.7c1,1.7,2.7,2.8,4.7,3c2,0.1,3.9-0.6,5.3-1.9c0.7-0.6,1.2-1.4,1.4-2.3
		c0.1-0.4,0-0.9-0.2-1.3c-0.2-0.4-0.6-0.6-1.1-0.6c-0.4,0-0.9,0.2-1.2,0.5c-0.3,0.3-0.5,0.7-0.6,1.1c-0.1,0.9,0,1.8,0.3,2.6
		c1.2,3.3,4.9,5,8.3,3.8c0,0,0.1,0,0.1,0c0.7-0.3,1.3-0.9,1.6-1.6c0.3-0.7,0-1.5-0.7-1.8c-0.7-0.3-1.4-0.3-2.1,0.1
		c-0.6,0.4-1.1,0.9-1.5,1.5c-0.7,1.2-1.3,2.4-1.8,3.7c-0.8,2.2-1.4,4.5-1.8,6.9c-0.4,2.1-0.5,3.9-0.7,5.3s-0.2,2.6-0.3,3.4
		c0,0.4-0.1,0.7-0.1,0.9S157.6,86.7,157.6,86.7z"/>
	<path class="st4" d="M163.9,90.3l-18.3,1.2c-0.8,0-1.4-0.5-1.5-1.3l0,0c0-0.8,0.5-1.4,1.3-1.5l18.3-1.2c0.8-0.1,1.4,0.5,1.5,1.3
		c0,0,0,0,0,0l0,0C165.3,89.6,164.7,90.3,163.9,90.3z"/>
	<path class="st4" d="M164,91.5l-18.3,1.2c-0.8,0-1.3,0.7-1.3,1.5c0,0.8,0.7,1.3,1.5,1.3l2-0.1l3,4.9c0.3,0.6,1,0.9,1.6,0.8l6.5-0.4
		c0.7-0.1,1.2-0.5,1.5-1.1l2.3-5.2l1.4-0.1c0.8-0.1,1.3-0.8,1.2-1.5C165.3,92,164.7,91.5,164,91.5L164,91.5z"/>
	<g class="st14">
		<path class="st2" d="M135.9,44.3c1.3-1.4,2.9-2.6,4.7-3.6c1.1-0.6,2.4-1.1,3.6-1.3c0.9-0.2,1.4-0.1,1.5,0.1c0.1,0.4-1.7,1.2-4,3
			c-6.4,4.6-9.4,12.5-7.9,20.2c0.5,2.9,1.3,4.7,1,5c-0.2,0.1-0.6-0.2-1.2-0.9c-0.8-1.1-1.4-2.2-1.8-3.5c-0.6-1.9-1-3.8-1-5.8
			c0-2.4,0.4-4.9,1.2-7.2"/>
	</g>
	<g class="st14">
		<path class="st2" d="M151.7,40.2c-1.5,0.1-2.9-0.2-3.1-1.1c-0.1-0.4,0.2-0.8,0.7-1.2c1.4-0.8,3.1-1,4.6-0.3
			c0.6,0.3,0.9,0.7,0.8,1.1"/>
	</g>
	<path class="st8" d="M160.2,100c-0.4-0.1-0.9-0.2-1.3-0.3c-1-0.2-2.1-0.3-3.1-0.2c-1,0.1-2,0.4-3,0.8c-0.7,0.3-1.2,0.6-1.2,0.5
		c0.3-0.3,0.7-0.6,1.1-0.7c1-0.5,2-0.8,3.1-0.9c1.1-0.1,2.2,0,3.2,0.3C159.4,99.6,159.8,99.8,160.2,100z"/>
	<path class="st8" d="M162.9,94.4c0,0.1-3.3,0.4-7.4,0.6s-7.4,0.4-7.4,0.3s3.3-0.4,7.4-0.6S162.9,94.3,162.9,94.4z"/>
	<path class="st8" d="M161.9,96.7c-0.6,0.1-1.2,0.2-1.8,0.3c-1.1,0.1-2.6,0.3-4.4,0.4s-3.2,0.2-4.4,0.2c-0.6,0.1-1.2,0.1-1.8,0
		c0.6-0.1,1.2-0.2,1.8-0.2l4.4-0.3l4.4-0.4C160.6,96.7,161.3,96.6,161.9,96.7z"/>
</g>
<g id="freepik--Book--inject-66">
	<path class="st0" d="M30,219.1l4,6.4c0,0,17-15.6,33.8-11.2C67.8,214.3,52.7,201.5,30,219.1z"/>
	<path class="st0" d="M67.8,214.3c0,0,12.4-13.5,30.7-10.4l5,0.8l-1.6-2.9C101.9,201.7,70.1,190.9,67.8,214.3z"/>
	<path class="st15" d="M41.5,168.7c0,0-24.9-4.3-41.3,4.6l26,48.9c0,0,21.3-20.5,41.6-7.9L41.5,168.7z"/>
	<path class="st4" d="M41.5,168.7c0.1,0.1,0.1,0.1,0.1,0.2l0.4,0.6l1.4,2.4l5.4,9.3l19.1,33c0.1,0.1,0,0.2-0.1,0.3
		c-0.1,0-0.2,0-0.2,0c-2.9-1.8-6.2-3.1-9.6-3.7c-1.8-0.3-3.6-0.4-5.4-0.4c-1.9,0.1-3.7,0.3-5.5,0.7c-7.7,1.9-14.8,5.7-20.6,11
		l-0.2,0.2c-0.1,0.1-0.2,0.1-0.3,0c0,0,0,0,0,0v0L0,173.4c-0.1-0.1,0-0.2,0.1-0.3c0,0,0,0,0,0l0,0c5.2-2.6,10.8-4.3,16.6-4.9
		c4.4-0.5,8.9-0.7,13.3-0.6c3.7,0.1,6.6,0.4,8.5,0.7c1,0.1,1.7,0.2,2.2,0.3l0.6,0.1L41.5,168.7l-0.2-0.1l-0.6-0.1
		c-0.5-0.1-1.2-0.2-2.2-0.3c-2-0.2-4.8-0.4-8.5-0.5c-4.4-0.1-8.9,0.1-13.2,0.7c-5.7,0.7-11.3,2.4-16.5,5l0.1-0.3l26,48.9L26,222
		l0.2-0.2c3-2.7,6.4-5.1,9.9-7c3.4-1.9,7.1-3.3,10.9-4.1c1.8-0.4,3.7-0.6,5.6-0.7c1.8,0,3.7,0.1,5.5,0.4c3.4,0.6,6.7,1.9,9.7,3.8
		l-0.3,0.3l-18.9-33l-5.3-9.3l-1.4-2.5c-0.2-0.3-0.3-0.5-0.3-0.6C41.6,168.8,41.5,168.8,41.5,168.7z"/>
	<path class="st15" d="M80.7,158.7c0,0-18.9-12-38.9,10l26.3,45.6c0,0,5.4-18.5,36.7-12.1L80.7,158.7z"/>
	<path class="st4" d="M80.7,158.7c0.1,0.1,0.1,0.1,0.1,0.2c0.1,0.1,0.2,0.3,0.3,0.6l1.3,2.3l5,8.8l17.5,31.5c0.1,0.1,0,0.2-0.1,0.3
		c0,0,0,0,0,0c0,0-0.1,0-0.1,0l0,0l-4.7-0.8c-0.8-0.1-1.6-0.2-2.4-0.3l-2.5-0.2c-0.8-0.1-1.7-0.1-2.5-0.1l-2.5,0
		c-0.9,0-1.7,0.2-2.6,0.2c-0.9,0.1-1.7,0.2-2.6,0.4l-2.6,0.6l-2.5,0.9c-0.8,0.3-1.6,0.7-2.4,1.1c-0.4,0.2-0.8,0.4-1.2,0.7l-1.1,0.7
		c-0.8,0.5-1.4,1.1-2.1,1.7c-0.7,0.6-1.3,1.3-1.9,2c-1.2,1.4-2.2,3-2.8,4.8l0,0c0,0.1-0.2,0.2-0.3,0.1c-0.1,0-0.1-0.1-0.1-0.1
		l-1.1-1.8c-9.3-16.1-18-31.2-25.2-43.8c0-0.1,0-0.2,0-0.2c4-4.5,8.8-8.1,14.2-10.7c4.2-1.9,8.8-2.8,13.4-2.5
		c2.9,0.2,5.8,0.8,8.6,1.9c0.7,0.3,1.4,0.6,2.1,1l0.5,0.3L80.7,158.7l-0.2-0.2l-0.5-0.3c-0.5-0.2-1.2-0.6-2.1-0.9
		c-7.1-2.7-15-2.4-21.8,0.8c-5.4,2.6-10.1,6.2-14.1,10.7v-0.2l25.2,43.8l1.1,1.8l-0.5,0.1c0.7-1.8,1.6-3.5,2.9-5
		c0.6-0.7,1.3-1.4,1.9-2.1c0.7-0.6,1.4-1.2,2.2-1.7l1.2-0.8c0.4-0.3,0.8-0.5,1.2-0.7c0.8-0.4,1.6-0.9,2.5-1.2l2.6-0.9l2.6-0.6
		c0.9-0.2,1.7-0.3,2.6-0.4c0.9-0.1,1.7-0.2,2.6-0.2h2.6c0.8,0,1.7,0,2.5,0.1l2.5,0.2c0.8,0,1.6,0.1,2.4,0.3l4.7,0.8l-0.2,0.3
		c-7.2-13-13.2-23.9-17.4-31.6c-2.1-3.8-3.7-6.8-4.9-8.9l-1.3-2.4c-0.1-0.3-0.2-0.5-0.3-0.6S80.7,158.7,80.7,158.7z"/>
	<path class="st15" d="M7.2,149.8l28.1,54.1c0,0,22.8-1,32.5,10.1l-26.1-45.3C41.8,168.7,26.5,149.8,7.2,149.8z"/>
	<path class="st4" d="M7.2,149.8h0.7l2.2,0.1c0.2,0,0.5,0,0.8,0l0.8,0.1l1.9,0.3c0.7,0.1,1.4,0.3,2.2,0.5c0.8,0.2,1.6,0.4,2.4,0.7
		c6.7,2.2,15.7,7.7,23.8,17l0,0l0,0l26.1,45.3c0.1,0.1,0,0.3-0.1,0.3c-0.1,0.1-0.2,0.1-0.3,0l0,0l-1.1-1.1c-2.1-2-4.5-3.6-7.2-4.8
		c-2.6-1.2-5.3-2-8.1-2.6c-5.3-1.2-10.6-1.7-16-1.6l0,0c-0.1,0-0.2,0-0.2-0.1c-8.2-15.9-15.2-29.5-20.2-39.1
		c-2.4-4.7-4.4-8.5-5.7-11.2c-0.7-1.3-1.2-2.3-1.5-3L7.3,150L7.2,149.8c0,0,0.1,0.1,0.1,0.2l0.4,0.8l1.6,3l5.9,11.2l20.3,38.8
		l-0.2-0.1c5.4-0.1,10.8,0.4,16.1,1.6c2.8,0.6,5.5,1.5,8.1,2.7c2.7,1.2,5.2,2.8,7.3,4.9l1.1,1.1l-0.4,0.3
		c-9.7-16.9-18.6-32.5-26-45.4l0,0c-3.6-4.2-7.8-8-12.3-11.1c-3.5-2.5-7.3-4.4-11.3-5.9c-0.8-0.3-1.6-0.5-2.4-0.7
		c-0.7-0.2-1.4-0.4-2.1-0.5l-1.9-0.3l-0.8-0.1l-0.7-0.1L7.2,149.8z"/>
</g>
<g id="freepik--Stars--inject-66">
	<path class="st0" d="M95,303.3l0.6,1c0.7,1.1,1.7,2,2.8,2.6l1,0.5l-1,0.6c-1.1,0.7-2,1.7-2.6,2.8l-0.5,1l-0.6-1
		c-0.7-1.1-1.7-2-2.8-2.6l-1.1-0.5l1-0.6c1.1-0.7,2-1.7,2.6-2.8L95,303.3z"/>
	<path class="st0" d="M39.6,97.1l0.6,1c0.7,1.1,1.7,2,2.8,2.6l1,0.5l-1,0.6c-1.1,0.7-2,1.7-2.6,2.8l-0.5,1l-0.6-1
		c-0.7-1.1-1.7-2-2.8-2.6l-1.1-0.5l1-0.6c1.1-0.7,2-1.7,2.6-2.9L39.6,97.1z"/>
	<path class="st0" d="M296.2,132.7l0.6,1c0.7,1.1,1.7,2,2.9,2.6l1,0.5l-1,0.6c-1.1,0.7-2,1.7-2.6,2.9l-0.5,1l-0.6-1
		c-0.7-1.1-1.7-2-2.8-2.6l-1.1-0.5l1-0.6c1.1-0.7,2-1.7,2.6-2.8L296.2,132.7z"/>
	<path class="st0" d="M265.9,316.3l0.6,1c0.7,1.1,1.7,2,2.9,2.6l1,0.5l-1,0.6c-1.1,0.7-2,1.7-2.6,2.8l-0.5,1l-0.6-1
		c-0.7-1.1-1.7-2-2.8-2.6l-1-0.5l1-0.6c1.1-0.7,2-1.7,2.6-2.9L265.9,316.3z"/>
	<path class="st0" d="M271.6,354.9l0.3,0.1c0.3,0.1,0.7,0.2,1,0.1l0.3-0.1l-0.1,0.3c-0.1,0.3-0.2,0.7-0.1,1l0.1,0.3l-0.3-0.1
		c-0.3-0.1-0.7-0.2-1-0.1l-0.3,0.1l0.1-0.3c0.1-0.3,0.2-0.7,0.1-1L271.6,354.9z"/>
	<path class="st0" d="M289.1,94l0.3,0.1c0.3,0.1,0.7,0.2,1,0.1l0.3-0.1l-0.1,0.3c-0.1,0.3-0.2,0.7-0.1,1l0.1,0.3l-0.3-0.1
		c-0.3-0.1-0.7-0.2-1-0.1l-0.3,0.1l0.1-0.3c0.1-0.3,0.2-0.7,0.1-1L289.1,94z"/>
	<path class="st0" d="M50.8,70.1l0.3,0.1c0.3,0.1,0.7,0.2,1,0.1h0.3l-0.1,0.3c-0.1,0.3-0.2,0.7-0.1,1l0.1,0.3L52,71.8
		c-0.3-0.1-0.7-0.2-1-0.1h-0.3l0.1-0.3c0.1-0.3,0.2-0.7,0.1-1L50.8,70.1z"/>
	<path class="st0" d="M80.2,273.3l0.3,0.1c0.3,0.1,0.7,0.2,1,0.1l0.3,0l-0.1,0.3c-0.1,0.3-0.2,0.7-0.1,1l0.1,0.3l-0.3-0.1
		c-0.3-0.1-0.7-0.2-1-0.1l-0.3,0.1l0.1-0.3c0.1-0.3,0.2-0.7,0.1-1L80.2,273.3z"/>
	<path class="st0" d="M112.1,351.8l-0.3,0.3L111,353l-3.2,3.2l-12,11.6v-0.1c0.6,12.5,1.4,29.5,2.3,48.5v0.4l-0.4-0.2l-4.3-2.9
		l-27.4-18.4h-0.1V395c-4.1-12.2-7.5-22.5-10-29.8c-1.2-3.6-2.1-6.5-2.8-8.5l-0.7-2.2c-0.1-0.2-0.1-0.4-0.2-0.6
		c0-0.1-0.1-0.2-0.1-0.2l0.1,0.2l0.2,0.6c0.2,0.5,0.4,1.3,0.8,2.2l2.9,8.4c2.5,7.3,6,17.6,10.1,29.8l-0.1-0.1l27.5,18.3l4.3,2.9
		l-0.3,0.2c-0.8-19-1.5-36-2.1-48.6v-0.1h0.1l12.1-11.5l3.3-3.1l0.9-0.8C112,351.9,112.1,351.8,112.1,351.8z"/>
	<polygon class="st0" points="99.3,410.4 99.3,413.2 101.5,414.9 98.8,415.7 97.9,418.4 96.3,416 93.5,416 95.2,413.8 94.4,411.1
		97,412.1 	"/>
	<polygon class="st0" points="66.3,391.2 66.3,393 67.9,394 66.2,394.6 65.7,396.4 64.6,395 62.7,395.1 63.8,393.5 63.1,391.8
		64.9,392.3 	"/>
	<polygon class="st0" points="52,350.3 53.4,352 55.7,351.9 54.4,353.8 55.2,355.9 53.1,355.2 51.3,356.7 51.3,354.4 49.4,353.2
		51.5,352.4 	"/>
	<polygon class="st0" points="110.7,348.5 112.1,350.3 114.4,350.1 113.1,352 113.9,354.1 111.8,353.5 110,354.9 110,352.6
		108.1,351.4 110.2,350.7 	"/>
	<polygon class="st0" points="95.3,365.6 96.2,366.8 97.6,366.7 96.8,367.9 97.4,369.2 96,368.8 94.9,369.7 94.8,368.3 93.6,367.5
		95,367 	"/>
</g>
<g id="freepik--Planets--inject-66">
	<circle class="st0" cx="42.4" cy="270.1" r="19.9"/>
	<g class="st16">
		<path class="st2" d="M39.8,276.3c0,1.8-1.4,3.3-3.2,3.3c-1.8,0-3.3-1.4-3.3-3.2c0-1.8,1.4-3.3,3.2-3.3c0,0,0,0,0,0
			C38.4,273,39.8,274.5,39.8,276.3z"/>
	</g>
	<g class="st16">
		<path class="st2" d="M35.2,266.9c0,1-0.8,1.9-1.9,1.9c-1,0-1.9-0.8-1.9-1.9c0-1,0.8-1.9,1.9-1.9c0,0,0,0,0,0
			C34.4,265,35.2,265.9,35.2,266.9z"/>
	</g>
	<path class="st0" d="M23.1,274.9c0.1,0.4-17.1,16.8-12.6,20.3s23-5.5,38.9-18.3s30.4-28.4,26.4-32.5s-23.8,8.1-23.8,8.1l2.4,1.5
		c0,0,12-7.7,15.8-4.7s-7,14.6-22.3,25.8S17.8,294,15.5,291s8.5-13.2,8.5-13.2L23.1,274.9z"/>
	<g class="st16">
		<path d="M23.1,274.9c0.1,0.4-17.1,16.8-12.6,20.3s23-5.5,38.9-18.3s30.4-28.4,26.4-32.5s-23.8,8.1-23.8,8.1l2.4,1.5
			c0,0,12-7.7,15.8-4.7s-7,14.6-22.3,25.8S17.8,294,15.5,291s8.5-13.2,8.5-13.2L23.1,274.9z"/>
	</g>
	<g class="st16">
		<path class="st2" d="M31.4,256c0.2,0.2-1.2,1.3-2.7,3.6c-4.1,6-4.3,14-0.4,20.2c1.4,2.4,2.7,3.6,2.6,3.8s-1.7-0.8-3.5-3.1
			c-1-1.4-1.8-2.9-2.4-4.5c-1.5-4-1.4-8.5,0.3-12.5c0.6-1.6,1.5-3.1,2.6-4.4C29.7,256.7,31.3,255.9,31.4,256z"/>
	</g>
	<circle class="st0" cx="262.2" cy="83.2" r="16.5"/>
	<g class="st9">
		<path d="M267.5,76.9c0-1.5,1.3-2.7,2.7-2.6c1.5,0,2.7,1.3,2.6,2.7c0,1.5-1.3,2.7-2.7,2.6C268.7,79.7,267.5,78.4,267.5,76.9
			C267.5,77,267.5,77,267.5,76.9z"/>
	</g>
	<g class="st9">
		<path d="M272.9,83.2c0-0.9,0.7-1.6,1.6-1.5c0.9,0,1.6,0.7,1.5,1.6c0,0.9-0.7,1.6-1.6,1.5c0,0,0,0,0,0
			C273.6,84.8,272.9,84.1,272.9,83.2C272.9,83.2,272.9,83.2,272.9,83.2z"/>
	</g>
	<g class="st9">
		<path d="M270.8,88c0.3,0,0.6,0.3,0.6,0.6c0,0,0,0,0,0c0,0.3-0.3,0.6-0.6,0.6c-0.3,0-0.6-0.3-0.6-0.6C270.2,88.3,270.5,88,270.8,88
			C270.8,88,270.8,88,270.8,88z"/>
	</g>
</g>
</svg>
